<svg width="36" height="34" viewBox="0 0 36 34" fill="none" xmlns="http://www.w3.org/2000/svg">
<path d="M22.9997 3.53349C21.5497 4.11682 20.2163 4.76682 19.1663 5.41682L18.883 5.60015C18.3997 5.90015 17.5997 5.90015 17.1163 5.60015L16.6997 5.35015C13.733 3.50015 8.43301 1.73349 4.93301 1.45015C2.94967 1.28349 1.33301 2.78348 1.33301 4.76682V24.9002C1.33301 26.5002 2.63301 28.0002 4.23301 28.2002L4.71634 28.2668C8.33301 28.7502 13.9163 30.5835 17.1163 32.3335L17.183 32.3668C17.633 32.6168 18.3497 32.6168 18.783 32.3668C21.983 30.6002 27.583 28.7502 31.2163 28.2668L31.7663 28.2002C33.3663 28.0002 34.6663 26.5002 34.6663 24.9002V4.78349C34.6663 2.78349 33.033 1.30015 31.0497 1.46682H30.9497C30.5497 1.50015 30.1163 1.55015 29.6663 1.63349M22.9997 3.53349V10.3335L26.333 8.11682L29.6663 10.3335V1.63349M22.9997 3.53349C25.183 2.66682 27.6163 1.96682 29.6663 1.63349M17.9997 6.15015V31.1502" stroke="white" stroke-width="2" stroke-linecap="square" stroke-linejoin="round"/>
</svg>
