<svg width="36" height="34" viewBox="0 0 36 34" fill="none" xmlns="http://www.w3.org/2000/svg">
<path d="M22.9997 3.53324C21.5497 4.11657 20.2163 4.76657 19.1663 5.41657L18.883 5.59991C18.3997 5.89991 17.5997 5.89991 17.1163 5.59991L16.6997 5.34991C13.733 3.49991 8.43301 1.73324 4.93301 1.44991C2.94967 1.28324 1.33301 2.78324 1.33301 4.76657V24.8999C1.33301 26.4999 2.63301 27.9999 4.23301 28.1999L4.71634 28.2666C8.33301 28.7499 13.9163 30.5832 17.1163 32.3332L17.183 32.3666C17.633 32.6166 18.3497 32.6166 18.783 32.3666C21.983 30.5999 27.583 28.7499 31.2163 28.2666L31.7663 28.1999C33.3663 27.9999 34.6663 26.4999 34.6663 24.8999V4.78324C34.6663 2.78324 33.033 1.29991 31.0497 1.46657H30.9497C30.5497 1.49991 30.1163 1.54991 29.6663 1.63324M22.9997 3.53324V10.3332L26.333 8.11658L29.6663 10.3332V1.63324M22.9997 3.53324C25.183 2.66657 27.6163 1.96657 29.6663 1.63324M17.9997 6.14991V31.1499" stroke="#276BF0" stroke-width="2" stroke-linecap="square" stroke-linejoin="round"/>
</svg>
