<svg width="36" height="36" viewBox="0 0 36 36" fill="none" xmlns="http://www.w3.org/2000/svg">
<path d="M23.7663 27.1335L25.383 28.2002C26.3163 28.8335 27.583 28.1502 27.583 27.0168V24.0002C29.6997 24.0002 31.483 23.3002 32.7163 22.0502C33.9663 20.8168 34.6663 19.0335 34.6663 16.9168V8.41683C34.6663 4.16683 31.833 1.3335 27.583 1.3335H13.4163C9.16634 1.3335 6.33301 4.16683 6.33301 8.41683V13.0335M23.7663 27.1335C23.9163 26.6168 23.983 26.0502 23.983 25.4502V18.6668C23.983 15.2668 21.7163 13.0002 18.3163 13.0002H6.99967C6.76634 13.0002 6.54967 13.0168 6.33301 13.0335M23.7663 27.1335C23.1497 29.5835 21.1163 31.1168 18.3163 31.1168H13.783L8.74968 34.4668C8.58095 34.5823 8.38378 34.6494 8.17962 34.6606C7.97545 34.6719 7.7721 34.627 7.59168 34.5308C7.41127 34.4345 7.26068 34.2907 7.1563 34.1149C7.05193 33.939 6.99775 33.738 6.99968 33.5335V31.1168C5.29968 31.1168 3.88301 30.5502 2.89967 29.5668C1.89967 28.5668 1.33301 27.1502 1.33301 25.4502V18.6668C1.33301 15.5002 3.29967 13.3168 6.33301 13.0335" stroke="white" stroke-width="2" stroke-miterlimit="10" stroke-linecap="square" stroke-linejoin="round"/>
</svg>
