<svg width="36" height="36" viewBox="0 0 36 36" fill="none" xmlns="http://www.w3.org/2000/svg">
<path d="M23.7663 27.1333L25.383 28.1999C26.3163 28.8333 27.583 28.1499 27.583 27.0166V23.9999C29.6997 23.9999 31.483 23.2999 32.7163 22.0499C33.9663 20.8166 34.6663 19.0333 34.6663 16.9166V8.41659C34.6663 4.16659 31.833 1.33325 27.583 1.33325H13.4163C9.16634 1.33325 6.33301 4.16659 6.33301 8.41659V13.0333M23.7663 27.1333C23.9163 26.6166 23.983 26.0499 23.983 25.4499V18.6666C23.983 15.2666 21.7163 12.9999 18.3163 12.9999H6.99967C6.76634 12.9999 6.54967 13.0166 6.33301 13.0333M23.7663 27.1333C23.1497 29.5833 21.1163 31.1166 18.3163 31.1166H13.783L8.74967 34.4666C8.58095 34.5821 8.38378 34.6491 8.17962 34.6604C7.97545 34.6717 7.7721 34.6267 7.59168 34.5305C7.41126 34.4343 7.26068 34.2905 7.1563 34.1146C7.05193 33.9388 6.99775 33.7377 6.99967 33.5333V31.1166C5.29967 31.1166 3.88301 30.5499 2.89967 29.5666C1.89967 28.5666 1.33301 27.1499 1.33301 25.4499V18.6666C1.33301 15.4999 3.29967 13.3166 6.33301 13.0333" stroke="#276BF0" stroke-width="2" stroke-miterlimit="10" stroke-linecap="square" stroke-linejoin="round"/>
</svg>
