<svg width="36" height="34" viewBox="0 0 36 34" fill="none" xmlns="http://www.w3.org/2000/svg">
<path d="M11.079 26.7924L10.2882 26.1802L9.0639 27.7617L9.85462 28.3738L11.079 26.7924ZM15.6335 31.5831L16.3406 30.876L16.2958 30.8312L16.2456 30.7924L15.6335 31.5831ZM29.8001 29.0831L28.8502 28.7708L28.8388 28.8053L28.83 28.8406L29.8001 29.0831ZM33.8001 16.9165L32.8584 16.5801L32.8541 16.5921L32.8502 16.6041L33.8001 16.9165ZM22.3001 10.5831L21.312 10.4287L21.3102 10.4417L22.3001 10.5831ZM23.1335 5.24978L22.1573 5.03285L22.1504 5.06394L22.1455 5.09541L23.1335 5.24978ZM20.9668 1.58312L20.6157 2.51945L20.633 2.52595L20.6506 2.5318L20.9668 1.58312ZM17.3001 2.74978L18.1301 3.30762L18.1322 3.30448L17.3001 2.74978ZM9.63685 12.3586L9.07901 13.1886L10.7389 14.3042L11.2967 13.4743L9.63685 12.3586ZM9.85462 28.3738L15.0213 32.3738L16.2456 30.7924L11.079 26.7924L9.85462 28.3738ZM14.9264 32.2902C15.4375 32.8014 16.1725 33.1105 16.8171 33.2946C17.4862 33.4858 18.2036 33.5831 18.8001 33.5831V31.5831C18.3967 31.5831 17.8641 31.5138 17.3665 31.3716C16.8445 31.2224 16.4961 31.0315 16.3406 30.876L14.9264 32.2902ZM18.8001 33.5831H25.1335V31.5831H18.8001V33.5831ZM25.1335 33.5831C26.3732 33.5831 27.6178 33.1234 28.6198 32.3901C29.6226 31.6564 30.4526 30.5963 30.7703 29.3257L28.83 28.8406C28.6476 29.57 28.1444 30.2598 27.4388 30.7761C26.7325 31.2929 25.8938 31.5831 25.1335 31.5831V33.5831ZM30.7501 29.3954L34.7501 17.2288L32.8502 16.6041L28.8502 28.7708L30.7501 29.3954ZM34.7419 17.2528C35.2572 15.8098 35.0747 14.3712 34.2719 13.2816C33.4737 12.1984 32.154 11.5831 30.6335 11.5831V13.5831C31.6129 13.5831 32.2932 13.9679 32.6617 14.468C33.0255 14.9617 33.1764 15.6898 32.8584 16.5801L34.7419 17.2528ZM30.6335 11.5831H23.9668V13.5831H30.6335V11.5831ZM23.9668 11.5831C23.5579 11.5831 23.2119 11.2717 23.2901 10.7245L21.3102 10.4417C21.055 12.2279 22.3757 13.5831 23.9668 13.5831V11.5831ZM23.2881 10.7375L24.1215 5.40416L22.1455 5.09541L21.3121 10.4287L23.2881 10.7375ZM24.1096 5.46671C24.5621 3.43074 23.2336 1.28464 21.283 0.634434L20.6506 2.5318C21.6999 2.88159 22.3715 4.06883 22.1573 5.03285L24.1096 5.46671ZM21.3179 0.646788C20.3886 0.298276 19.3942 0.370947 18.5584 0.658264C17.7293 0.943268 16.9469 1.47686 16.4681 2.19508L18.1322 3.30448C18.32 3.02271 18.7043 2.72297 19.2085 2.54964C19.706 2.37862 20.2117 2.36796 20.6157 2.51945L21.3179 0.646788ZM16.4702 2.19195L9.63685 12.3586L11.2967 13.4743L18.1301 3.30762L16.4702 2.19195ZM2.9668 27.5831V11.2498H0.966797V27.5831H2.9668ZM2.9668 11.2498C2.9668 10.1958 3.19679 9.74775 3.43674 9.52625C3.69635 9.28662 4.21011 9.08312 5.30013 9.08312V7.08312C4.05682 7.08312 2.90391 7.29628 2.08018 8.05665C1.2368 8.83515 0.966797 9.97044 0.966797 11.2498H2.9668ZM5.30013 9.08312H6.9668V7.08312H5.30013V9.08312ZM6.9668 9.08312C8.05682 9.08312 8.57058 9.28662 8.83018 9.52625C9.07014 9.74775 9.30013 10.1958 9.30013 11.2498H11.3001C11.3001 9.97044 11.0301 8.83515 10.1867 8.05665C9.36302 7.29628 8.21011 7.08312 6.9668 7.08312V9.08312ZM9.30013 11.2498V27.5831H11.3001V11.2498H9.30013ZM9.30013 27.5831C9.30013 28.6371 9.07014 29.0852 8.83018 29.3067C8.57058 29.5463 8.05682 29.7498 6.9668 29.7498V31.7498C8.21011 31.7498 9.36302 31.5366 10.1867 30.7763C11.0301 29.9978 11.3001 28.8625 11.3001 27.5831H9.30013ZM6.9668 29.7498H5.30013V31.7498H6.9668V29.7498ZM5.30013 29.7498C4.21011 29.7498 3.69635 29.5463 3.43674 29.3067C3.19679 29.0852 2.9668 28.6371 2.9668 27.5831H0.966797C0.966797 28.8625 1.2368 29.9978 2.08018 30.7763C2.90391 31.5366 4.05682 31.7498 5.30013 31.7498V29.7498Z" fill="white"/>
</svg>
