<svg width="36" height="34" viewBox="0 0 36 34" fill="none" xmlns="http://www.w3.org/2000/svg">
<path d="M23.0996 29.3168C28.2996 29.8168 31.0663 27.3834 32.4663 21.3668L34.0996 14.4001C35.7329 7.43343 33.5996 3.98343 26.6163 2.3501L23.8329 1.7001C18.2663 0.383428 14.9496 1.46676 12.9996 5.5001M23.0996 29.3168C22.2663 29.2501 21.3663 29.1001 20.3996 28.8668L17.5996 28.2001C10.6496 26.5501 8.49959 23.1168 10.1329 16.1501L11.7663 9.16676C12.0996 7.7501 12.4996 6.51676 12.9996 5.5001M23.0996 29.3168C22.0663 30.0168 20.7663 30.6001 19.1829 31.1168L16.5496 31.9834C9.93293 34.1168 6.44959 32.3334 4.29959 25.7168L2.16626 19.1334C0.0329254 12.5168 1.79959 9.01676 8.41626 6.88343L11.0496 6.01676C11.7329 5.80009 12.3829 5.61676 12.9996 5.5001M19.0663 11.2168L27.1496 13.2668M17.4329 17.6668L22.2663 18.9001" stroke="#276BF0" stroke-width="2" stroke-linecap="square" stroke-linejoin="round"/>
</svg>
