<svg width="36" height="34" viewBox="0 0 36 34" fill="none" xmlns="http://www.w3.org/2000/svg">
<path d="M23.0996 29.3165C28.2996 29.8165 31.0663 27.3832 32.4663 21.3665L34.0996 14.3999C35.7329 7.43318 33.5996 3.98318 26.6163 2.34985L23.8329 1.69985C18.2663 0.383184 14.9496 1.46652 12.9996 5.49985M23.0996 29.3165C22.2663 29.2499 21.3663 29.0999 20.3996 28.8665L17.5996 28.1999C10.6496 26.5499 8.49959 23.1165 10.1329 16.1499L11.7663 9.16652C12.0996 7.74985 12.4996 6.51652 12.9996 5.49985M23.0996 29.3165C22.0663 30.0165 20.7663 30.5999 19.1829 31.1165L16.5496 31.9832C9.93293 34.1165 6.44959 32.3332 4.29959 25.7165L2.16626 19.1332C0.0329255 12.5165 1.79959 9.01652 8.41626 6.88318L11.0496 6.01652C11.7329 5.79985 12.3829 5.61652 12.9996 5.49985M19.0663 11.2165L27.1496 13.2665M17.4329 17.6665L22.2663 18.8999" stroke="white" stroke-width="2" stroke-linecap="square" stroke-linejoin="round"/>
</svg>
