<svg width="36" height="36" viewBox="0 0 36 36" fill="none" xmlns="http://www.w3.org/2000/svg">
<path d="M2.19967 9.84992H33.7997M12.1997 1.51659V9.61658M23.7997 1.51659V8.86658M34.6663 22.9999V12.9999C34.6663 4.66659 31.333 1.33325 22.9997 1.33325H12.9997C4.66634 1.33325 1.33301 4.66659 1.33301 12.9999V22.9999C1.33301 31.3332 4.66634 34.6666 12.9997 34.6666H22.9997C31.333 34.6666 34.6663 31.3332 34.6663 22.9999ZM14.2497 20.0833C14.2497 17.5166 16.0663 16.4666 18.283 17.7499L21.7497 19.7499C23.9663 21.0333 23.9663 23.1333 21.7497 24.4166L18.283 26.4166C16.0663 27.6999 14.2497 26.6499 14.2497 24.0832V20.0833Z" stroke="#276BF0" stroke-width="2" stroke-miterlimit="10" stroke-linecap="square" stroke-linejoin="round"/>
</svg>
