<svg width="36" height="36" viewBox="0 0 36 36" fill="none" xmlns="http://www.w3.org/2000/svg">
<path d="M2.19967 9.85016H33.7997M12.1997 1.51683V9.61683M23.7997 1.51683V8.86683M34.6663 23.0002V13.0002C34.6663 4.66683 31.333 1.3335 22.9997 1.3335H12.9997C4.66634 1.3335 1.33301 4.66683 1.33301 13.0002V23.0002C1.33301 31.3335 4.66634 34.6668 12.9997 34.6668H22.9997C31.333 34.6668 34.6663 31.3335 34.6663 23.0002ZM14.2497 20.0835C14.2497 17.5168 16.0663 16.4668 18.283 17.7502L21.7497 19.7502C23.9663 21.0335 23.9663 23.1335 21.7497 24.4168L18.283 26.4168C16.0663 27.7002 14.2497 26.6502 14.2497 24.0835V20.0835Z" stroke="white" stroke-width="2" stroke-miterlimit="10" stroke-linecap="square" stroke-linejoin="round"/>
</svg>
