<svg width="36" height="36" viewBox="0 0 36 36" fill="none" xmlns="http://www.w3.org/2000/svg">
<path d="M8.46634 28.2499V29.2499H10.4663V28.2499H8.46634ZM10.4663 24.7999V23.7999H8.46634V24.7999H10.4663ZM16.9997 28.2499V29.2499H18.9997V28.2499H16.9997ZM18.9997 21.3499V20.3499H16.9997V21.3499H18.9997ZM25.533 28.2499V29.2499H27.533V28.2499H25.533ZM27.533 17.8833V16.8833H25.533V17.8833H27.533ZM26.533 7.74992L27.533 7.74992V6.74992H26.533V7.74992ZM25.7663 8.64992L26.5261 9.30008L26.5276 9.29839L25.7663 8.64992ZM9.22441 17.7463L8.25411 17.9882L8.73799 19.9288L9.70828 19.6869L9.22441 17.7463ZM21.6497 6.74992H20.6497V8.74992H21.6497V6.74992ZM25.533 12.6166V13.6166H27.533V12.6166H25.533ZM10.4663 28.2499V24.7999H8.46634V28.2499H10.4663ZM18.9997 28.2499V21.3499H16.9997V28.2499H18.9997ZM27.533 28.2499V17.8833H25.533V28.2499H27.533ZM25.7718 7.10145L25.0051 8.00145L26.5276 9.29839L27.2943 8.39839L25.7718 7.10145ZM25.0065 7.99976C20.8922 12.8079 15.3735 16.2131 9.22441 17.7463L9.70828 19.6869C16.2592 18.0534 22.1405 14.4253 26.5261 9.30008L25.0065 7.99976ZM21.6497 8.74992H26.533V6.74992H21.6497V8.74992ZM25.533 7.74992L25.533 12.6166H27.533L27.533 7.74992L25.533 7.74992ZM12.9997 35.6666H22.9997V33.6666H12.9997V35.6666ZM22.9997 35.6666C27.265 35.6666 30.5108 34.8196 32.6651 32.6654C34.8194 30.5111 35.6663 27.2652 35.6663 22.9999H33.6663C33.6663 27.068 32.8466 29.6554 31.2509 31.2511C29.6552 32.8469 27.0677 33.6666 22.9997 33.6666V35.6666ZM35.6663 22.9999V12.9999H33.6663V22.9999H35.6663ZM35.6663 12.9999C35.6663 8.73462 34.8194 5.48877 32.6651 3.33448C30.5108 1.18019 27.265 0.333252 22.9997 0.333252V2.33325C27.0677 2.33325 29.6552 3.15298 31.2509 4.74869C32.8466 6.3444 33.6663 8.93188 33.6663 12.9999H35.6663ZM22.9997 0.333252H12.9997V2.33325H22.9997V0.333252ZM12.9997 0.333252C8.73438 0.333252 5.48853 1.18019 3.33423 3.33448C1.17994 5.48877 0.333008 8.73462 0.333008 12.9999H2.33301C2.33301 8.93188 3.15274 6.3444 4.74845 4.74869C6.34416 3.15298 8.93164 2.33325 12.9997 2.33325V0.333252ZM0.333008 12.9999V22.9999H2.33301V12.9999H0.333008ZM0.333008 22.9999C0.333008 27.2652 1.17994 30.5111 3.33423 32.6654C5.48853 34.8196 8.73438 35.6666 12.9997 35.6666V33.6666C8.93164 33.6666 6.34416 32.8469 4.74845 31.2511C3.15274 29.6554 2.33301 27.068 2.33301 22.9999H0.333008Z" fill="#276BF0"/>
</svg>
