<svg width="36" height="36" viewBox="0 0 36 36" fill="none" xmlns="http://www.w3.org/2000/svg">
<path d="M8.46634 28.2502V29.2502H10.4663V28.2502H8.46634ZM10.4663 24.8002V23.8002H8.46634V24.8002H10.4663ZM16.9997 28.2502V29.2502H18.9997V28.2502H16.9997ZM18.9997 21.3502V20.3502H16.9997V21.3502H18.9997ZM25.533 28.2502V29.2502H27.533V28.2502H25.533ZM27.533 17.8835V16.8835H25.533V17.8835H27.533ZM26.533 7.75016L27.533 7.75016V6.75016H26.533V7.75016ZM25.7663 8.65016L26.5261 9.30033L26.5276 9.29863L25.7663 8.65016ZM9.22441 17.7465L8.25411 17.9885L8.73799 19.9291L9.70828 19.6871L9.22441 17.7465ZM21.6497 6.75016H20.6497V8.75016H21.6497V6.75016ZM25.533 12.6168V13.6168H27.533V12.6168H25.533ZM10.4663 28.2502V24.8002H8.46634V28.2502H10.4663ZM18.9997 28.2502V21.3502H16.9997V28.2502H18.9997ZM27.533 28.2502V17.8835H25.533V28.2502H27.533ZM25.7718 7.1017L25.0051 8.0017L26.5276 9.29863L27.2943 8.39863L25.7718 7.1017ZM25.0065 8C20.8922 12.8081 15.3735 16.2133 9.22441 17.7465L9.70828 19.6871C16.2592 18.0537 22.1405 14.4255 26.5261 9.30032L25.0065 8ZM21.6497 8.75016H26.533V6.75016H21.6497V8.75016ZM25.533 7.75016L25.533 12.6168H27.533L27.533 7.75016L25.533 7.75016ZM12.9997 35.6668H22.9997V33.6668H12.9997V35.6668ZM22.9997 35.6668C27.265 35.6668 30.5108 34.8199 32.6651 32.6656C34.8194 30.5113 35.6663 27.2655 35.6663 23.0002H33.6663C33.6663 27.0682 32.8466 29.6557 31.2509 31.2514C29.6552 32.8471 27.0677 33.6668 22.9997 33.6668V35.6668ZM35.6663 23.0002V13.0002H33.6663V23.0002H35.6663ZM35.6663 13.0002C35.6663 8.73487 34.8194 5.48901 32.6651 3.33472C30.5108 1.18043 27.265 0.333496 22.9997 0.333496V2.3335C27.0677 2.3335 29.6552 3.15323 31.2509 4.74894C32.8466 6.34464 33.6663 8.93213 33.6663 13.0002H35.6663ZM22.9997 0.333496H12.9997V2.3335H22.9997V0.333496ZM12.9997 0.333496C8.73438 0.333496 5.48853 1.18043 3.33423 3.33472C1.17994 5.48901 0.333008 8.73487 0.333008 13.0002H2.33301C2.33301 8.93213 3.15274 6.34464 4.74845 4.74894C6.34416 3.15323 8.93164 2.3335 12.9997 2.3335V0.333496ZM0.333008 13.0002V23.0002H2.33301V13.0002H0.333008ZM0.333008 23.0002C0.333008 27.2655 1.17994 30.5113 3.33423 32.6656C5.48853 34.8199 8.73438 35.6668 12.9997 35.6668V33.6668C8.93164 33.6668 6.34416 32.8471 4.74845 31.2514C3.15274 29.6557 2.33301 27.0682 2.33301 23.0002H0.333008Z" fill="white"/>
</svg>
