<svg width="36" height="36" viewBox="0 0 36 36" fill="none" xmlns="http://www.w3.org/2000/svg">
<path d="M1.44977 5.6668L2.424 5.89236L2.42406 5.89207L1.44977 5.6668ZM12.7831 5.6668L11.8082 5.88939L11.8089 5.89236L12.7831 5.6668ZM9.54977 13.7001L10.239 14.4247L10.2405 14.4232L9.54977 13.7001ZM4.66643 13.7001L3.97236 14.4202L3.9819 14.4291L4.66643 13.7001ZM23.1164 25.6668L24.0907 25.8924L24.0907 25.8921L23.1164 25.6668ZM34.5164 25.6668L33.5421 25.8921L33.5422 25.8924L34.5164 25.6668ZM31.2664 33.7001L30.5789 32.974L30.5772 32.9756L31.2664 33.7001ZM26.3664 33.7001L25.6789 34.4263L25.6819 34.4291L26.3664 33.7001ZM17.9998 5.33346H16.9998V7.33346H17.9998V5.33346ZM24.6664 12.1835L25.3249 12.9361L25.3261 12.935L24.6664 12.1835ZM11.3498 23.8335L12.0064 24.5877L12.0082 24.5861L11.3498 23.8335ZM17.9998 30.6668H18.9998V28.6668H17.9998V30.6668ZM7.14346 6.1668H6.14346V8.1668H7.14346V6.1668ZM7.16272 8.1668H8.16272V6.1668H7.16272V8.1668ZM28.8101 26.1668H27.8101V28.1668H28.8101V26.1668ZM28.8294 28.1668H29.8294V26.1668H28.8294V28.1668ZM2.42406 5.89207C2.96459 3.5543 4.98454 2.3418 7.12268 2.3418C9.26065 2.3418 11.2749 3.55371 11.8082 5.88939L13.758 5.4442C12.9746 2.01322 9.98888 0.341797 7.12268 0.341797C4.25666 0.341797 1.26828 2.01263 0.475471 5.44153L2.42406 5.89207ZM11.8089 5.89236C12.4631 8.71818 10.6838 11.2337 8.85898 12.9771L10.2405 14.4232C12.1491 12.5999 14.6697 9.38209 13.7573 5.44124L11.8089 5.89236ZM8.86055 12.9756C7.88558 13.903 6.3385 13.8985 5.35097 12.9711L3.9819 14.4291C5.7277 16.0685 8.48062 16.0973 10.239 14.4247L8.86055 12.9756ZM5.36045 12.9802C3.54968 11.2347 1.76952 8.71916 2.424 5.89236L0.475538 5.44124C-0.436648 9.3811 2.08319 12.5989 3.97242 14.4201L5.36045 12.9802ZM24.0907 25.8921C24.6304 23.5578 26.6596 22.3418 28.8164 22.3418C30.9733 22.3418 33.0024 23.5578 33.5421 25.8921L35.4907 25.4415C34.6971 22.0091 31.6929 20.3418 28.8164 20.3418C25.94 20.3418 22.9358 22.0091 22.1421 25.4415L24.0907 25.8921ZM33.5422 25.8924C34.1962 28.7172 32.4177 31.2328 30.5789 32.974L31.954 34.4263C33.8818 32.6008 36.4033 29.3831 35.4907 25.4412L33.5422 25.8924ZM30.5772 32.9756C29.6022 33.903 28.0385 33.8984 27.051 32.9711L25.6819 34.4291C27.4277 36.0685 30.1973 36.0973 31.9556 34.4247L30.5772 32.9756ZM27.054 32.974C25.2151 31.2328 23.4366 28.7172 24.0907 25.8924L22.1422 25.4412C21.2296 29.3831 23.7511 32.6008 25.6789 34.4263L27.054 32.974ZM17.9998 7.33346H22.4664V5.33346H17.9998V7.33346ZM22.4664 7.33346C24.6247 7.33346 25.6319 10.0055 24.0068 11.4319L25.3261 12.935C28.3343 10.2947 26.4748 5.33346 22.4664 5.33346V7.33346ZM24.008 11.4308L10.6913 23.0808L12.0082 24.5861L25.3249 12.9361L24.008 11.4308ZM10.6932 23.0792C7.67785 25.7041 9.54349 30.6668 13.5331 30.6668V28.6668C11.3894 28.6668 10.3884 25.9962 12.0063 24.5877L10.6932 23.0792ZM13.5331 30.6668H17.9998V28.6668H13.5331V30.6668ZM7.14346 8.1668H7.16272V6.1668H7.14346V8.1668ZM28.8101 28.1668H28.8294V26.1668H28.8101V28.1668Z" fill="white"/>
</svg>
