<svg width="36" height="36" viewBox="0 0 36 36" fill="none" xmlns="http://www.w3.org/2000/svg">
<path d="M1.44977 5.66655L2.424 5.89211L2.42406 5.89182L1.44977 5.66655ZM12.7831 5.66655L11.8082 5.88915L11.8089 5.89211L12.7831 5.66655ZM9.54977 13.6999L10.239 14.4244L10.2405 14.4229L9.54977 13.6999ZM4.66643 13.6999L3.97236 14.4199L3.9819 14.4289L4.66643 13.6999ZM23.1164 25.6666L24.0907 25.8921L24.0907 25.8918L23.1164 25.6666ZM34.5164 25.6666L33.5421 25.8918L33.5422 25.8921L34.5164 25.6666ZM31.2664 33.6999L30.5789 32.9738L30.5772 32.9753L31.2664 33.6999ZM26.3664 33.6999L25.6789 34.426L25.6819 34.4289L26.3664 33.6999ZM17.9998 5.33322H16.9998V7.33322H17.9998V5.33322ZM24.6664 12.1832L25.3249 12.9359L25.3261 12.9348L24.6664 12.1832ZM11.3498 23.8332L12.0064 24.5875L12.0082 24.5859L11.3498 23.8332ZM17.9998 30.6666H18.9998V28.6666H17.9998V30.6666ZM7.14346 6.16655H6.14346V8.16655H7.14346V6.16655ZM7.16272 8.16655H8.16272V6.16655H7.16272V8.16655ZM28.8101 26.1666H27.8101V28.1666H28.8101V26.1666ZM28.8294 28.1666H29.8294V26.1666H28.8294V28.1666ZM2.42406 5.89182C2.96459 3.55405 4.98454 2.34155 7.12268 2.34155C9.26065 2.34155 11.2749 3.55347 11.8082 5.88915L13.758 5.44396C12.9746 2.01297 9.98888 0.341553 7.12268 0.341553C4.25666 0.341553 1.26828 2.01239 0.475471 5.44128L2.42406 5.89182ZM11.8089 5.89211C12.4631 8.71793 10.6838 11.2335 8.85898 12.9768L10.2405 14.4229C12.1491 12.5996 14.6697 9.38184 13.7573 5.44099L11.8089 5.89211ZM8.86055 12.9753C7.88558 13.9027 6.3385 13.8982 5.35097 12.9709L3.9819 14.4289C5.7277 16.0682 8.48062 16.097 10.239 14.4244L8.86055 12.9753ZM5.36045 12.9799C3.54968 11.2344 1.76952 8.71891 2.424 5.89211L0.475538 5.44099C-0.436648 9.38086 2.08319 12.5987 3.97242 14.4198L5.36045 12.9799ZM24.0907 25.8918C24.6304 23.5575 26.6596 22.3416 28.8164 22.3416C30.9733 22.3416 33.0024 23.5575 33.5421 25.8918L35.4907 25.4413C34.6971 22.0089 31.6929 20.3416 28.8164 20.3416C25.94 20.3416 22.9358 22.0089 22.1421 25.4413L24.0907 25.8918ZM33.5422 25.8921C34.1962 28.717 32.4177 31.2325 30.5789 32.9738L31.954 34.426C33.8818 32.6006 36.4033 29.3828 35.4907 25.441L33.5422 25.8921ZM30.5772 32.9753C29.6022 33.9028 28.0385 33.8982 27.051 32.9709L25.6819 34.4289C27.4277 36.0682 30.1973 36.097 31.9556 34.4244L30.5772 32.9753ZM27.054 32.9738C25.2151 31.2325 23.4366 28.717 24.0907 25.8921L22.1422 25.441C21.2296 29.3828 23.7511 32.6006 25.6789 34.426L27.054 32.9738ZM17.9998 7.33322H22.4664V5.33322H17.9998V7.33322ZM22.4664 7.33322C24.6247 7.33322 25.6319 10.0053 24.0068 11.4316L25.3261 12.9348C28.3343 10.2945 26.4748 5.33322 22.4664 5.33322V7.33322ZM24.008 11.4306L10.6913 23.0806L12.0082 24.5859L25.3249 12.9359L24.008 11.4306ZM10.6932 23.079C7.67785 25.7038 9.54349 30.6666 13.5331 30.6666V28.6666C11.3894 28.6666 10.3884 25.9959 12.0063 24.5875L10.6932 23.079ZM13.5331 30.6666H17.9998V28.6666H13.5331V30.6666ZM7.14346 8.16655H7.16272V6.16655H7.14346V8.16655ZM28.8101 28.1666H28.8294V26.1666H28.8101V28.1666Z" fill="#276BF0"/>
</svg>
