<svg width="32" height="36" viewBox="0 0 32 36" fill="none" xmlns="http://www.w3.org/2000/svg">
<path d="M16.0004 18.8334C17.8413 18.8334 19.3337 17.3411 19.3337 15.5001C19.3337 13.6592 17.8413 12.1668 16.0004 12.1668C14.1594 12.1668 12.6671 13.6592 12.6671 15.5001C12.6671 17.3411 14.1594 18.8334 16.0004 18.8334ZM16.0004 18.8334V23.8334M30.8504 16.5334C30.8504 24.6834 24.9337 32.3167 16.8504 34.5501C16.3004 34.7001 15.7004 34.7001 15.1504 34.5501C7.06705 32.3167 1.15039 24.6834 1.15039 16.5334V9.21672C1.15039 7.85006 2.18375 6.30006 3.46708 5.78339L12.7504 1.98345C14.8337 1.13345 17.1837 1.13345 19.2671 1.98345L28.5504 5.78339C29.8171 6.30006 30.8671 7.85006 30.8671 9.21672L30.8504 16.5334Z" stroke="#276BF0" stroke-width="2" stroke-miterlimit="10" stroke-linecap="square" stroke-linejoin="round"/>
</svg>
