<svg width="32" height="36" viewBox="0 0 32 36" fill="none" xmlns="http://www.w3.org/2000/svg">
<path d="M16.0004 18.8332C17.8413 18.8332 19.3337 17.3408 19.3337 15.4999C19.3337 13.6589 17.8413 12.1665 16.0004 12.1665C14.1594 12.1665 12.6671 13.6589 12.6671 15.4999C12.6671 17.3408 14.1594 18.8332 16.0004 18.8332ZM16.0004 18.8332V23.8332M30.8504 16.5332C30.8504 24.6832 24.9337 32.3165 16.8504 34.5498C16.3004 34.6998 15.7004 34.6998 15.1504 34.5498C7.06705 32.3165 1.15039 24.6832 1.15039 16.5332V9.21648C1.15039 7.84981 2.18375 6.29982 3.46708 5.78315L12.7504 1.9832C14.8337 1.1332 17.1837 1.1332 19.2671 1.9832L28.5504 5.78315C29.8171 6.29982 30.8671 7.84981 30.8671 9.21648L30.8504 16.5332Z" stroke="#F3F4FB" stroke-width="2" stroke-miterlimit="10" stroke-linecap="square" stroke-linejoin="round"/>
</svg>
